<svg width="42" height="42" viewBox="0 0 42 42" fill="none" xmlns="http://www.w3.org/2000/svg">
<path d="M5.25001 11.578C5.25001 10.7718 5.5201 10.0992 6.06026 9.56025C6.60043 9.02125 7.27243 8.75117 8.07626 8.75H33.9238C34.7288 8.75 35.4008 9.02008 35.9398 9.56025C36.4788 10.1004 36.7488 10.773 36.75 11.578V15.75C36.75 15.9985 36.666 16.2062 36.498 16.373C36.33 16.5398 36.1218 16.6238 35.8733 16.625C35.6248 16.6262 35.4171 16.5422 35.2503 16.373C35.0834 16.2038 35 15.9962 35 15.75V11.578C35 11.3085 34.888 11.0612 34.664 10.836C34.44 10.6108 34.1933 10.4988 33.9238 10.5H8.07626C7.80793 10.5 7.56118 10.612 7.33601 10.836C7.11085 11.06 6.99885 11.3073 7.00001 11.578V15.75C7.00001 15.9985 6.91601 16.2062 6.74801 16.373C6.58001 16.5398 6.37176 16.6238 6.12326 16.625C5.87476 16.6262 5.6671 16.5422 5.50026 16.373C5.33343 16.2038 5.25001 15.9962 5.25001 15.75V11.578ZM8.07801 33.25C7.27185 33.25 6.59926 32.9805 6.06026 32.4415C5.52126 31.9025 5.25118 31.2293 5.25001 30.422V26.25C5.25001 26.0015 5.33401 25.7938 5.50201 25.627C5.67001 25.4602 5.87826 25.3762 6.12676 25.375C6.37526 25.3738 6.58293 25.4578 6.74976 25.627C6.9166 25.7962 7.00001 26.0038 7.00001 26.25V30.4237C7.00001 30.6921 7.11201 30.9388 7.33601 31.164C7.56001 31.3892 7.80676 31.5012 8.07626 31.5H33.9238C34.1921 31.5 34.4389 31.388 34.664 31.164C34.8892 30.94 35.0012 30.6927 35 30.422V26.25C35 26.0015 35.084 25.7938 35.252 25.627C35.42 25.4602 35.6283 25.3762 35.8768 25.375C36.1253 25.3738 36.3329 25.4578 36.4998 25.627C36.6666 25.7962 36.75 26.0038 36.75 26.25V30.4237C36.75 31.2288 36.4805 31.9008 35.9415 32.4398C35.4025 32.9788 34.7299 33.2488 33.9238 33.25H8.07801ZM17.5 28.875C17.6633 28.875 17.8185 28.8342 17.9655 28.7525C18.1137 28.6708 18.2245 28.5483 18.298 28.385L24.5 15.9845L27.1985 21.3815C27.2732 21.5448 27.3846 21.6673 27.5328 21.749C27.6809 21.8307 27.8367 21.8727 28 21.875H35.875C36.1235 21.875 36.3312 21.791 36.498 21.623C36.6649 21.455 36.7488 21.2467 36.75 20.9982C36.7512 20.7497 36.6672 20.5421 36.498 20.3752C36.3288 20.2084 36.1212 20.125 35.875 20.125H28.5548L25.2998 13.615C25.2309 13.468 25.1271 13.3642 24.9883 13.3035C24.8483 13.2428 24.6908 13.2125 24.5158 13.2125C24.3408 13.2125 24.1798 13.2428 24.0328 13.3035C23.8858 13.3642 23.7749 13.4686 23.7003 13.6168L17.5 26.0155L14.8015 20.615C14.7268 20.4517 14.6154 20.3292 14.4673 20.2475C14.3191 20.1658 14.1633 20.125 14 20.125H6.12501C5.87651 20.125 5.66885 20.209 5.50201 20.377C5.33518 20.545 5.25118 20.7533 5.25001 21.0018C5.24885 21.2503 5.33285 21.4579 5.50201 21.6248C5.67118 21.7916 5.87885 21.875 6.12501 21.875H13.4453L16.7003 28.385C16.7738 28.5483 16.8846 28.6708 17.0328 28.7525C17.1809 28.8342 17.3373 28.875 17.5018 28.875" fill="#984895"/>
</svg>
